<svg xmlns="http://www.w3.org/2000/svg" xmlns:xlink="http://www.w3.org/1999/xlink" viewBox="0 0 180 40"><path d="M 22.459 0 C 26.022 0.429 29.296 1.793 32.031 3.839 L 22.459 13.411 Z" fill="rgb(255,75,64)"></path><path d="M 22.459 25.099 L 22.459 39.787 C 26.338 39.32 29.876 37.745 32.747 35.387 Z" fill="rgb(254,216,18)"></path><path d="M 17.618 0 C 7.692 1.195 0 9.646 0 19.894 C 0 30.141 7.692 38.592 17.618 39.787 Z" fill="rgb(6,237,196)"></path><path d="M 60.373 16.973 L 56.069 16.973 C 55.99 16.416 55.83 15.921 55.587 15.489 C 55.352 15.058 55.035 14.678 54.654 14.369 C 54.274 14.061 53.835 13.825 53.337 13.661 C 52.845 13.497 52.311 13.415 51.735 13.415 C 50.693 13.415 49.786 13.674 49.012 14.192 C 48.239 14.703 47.64 15.45 47.214 16.432 C 46.788 17.409 46.575 18.595 46.575 19.99 C 46.575 21.425 46.788 22.631 47.214 23.607 C 47.646 24.583 48.249 25.32 49.022 25.818 C 49.795 26.316 50.69 26.565 51.705 26.565 C 52.275 26.565 52.803 26.49 53.288 26.339 C 53.779 26.188 54.214 25.969 54.595 25.681 C 54.974 25.386 55.294 25.023 55.538 24.609 C 55.794 24.19 55.971 23.712 56.069 23.174 L 60.373 23.194 C 60.262 24.118 59.984 25.009 59.538 25.867 C 59.099 26.719 58.506 27.482 57.759 28.157 C 57.019 28.826 56.134 29.356 55.106 29.749 C 54.083 30.136 52.927 30.329 51.636 30.329 C 49.841 30.329 48.236 29.923 46.821 29.11 C 45.412 28.298 44.298 27.122 43.479 25.582 C 42.667 24.043 42.261 22.179 42.261 19.99 C 42.261 17.795 42.673 15.928 43.499 14.388 C 44.324 12.848 45.445 11.676 46.86 10.87 C 48.275 10.057 49.867 9.651 51.636 9.651 C 52.803 9.651 53.884 9.815 54.88 10.142 C 55.882 10.47 56.77 10.948 57.543 11.577 C 58.316 12.2 58.945 12.963 59.43 13.867 C 59.921 14.771 60.236 15.807 60.373 16.973 Z M 63.346 30.054 L 63.346 14.958 L 67.405 14.958 L 67.405 17.592 L 67.563 17.592 C 67.838 16.655 68.3 15.948 68.948 15.469 C 69.597 14.984 70.344 14.742 71.189 14.742 C 71.399 14.742 71.625 14.755 71.867 14.781 C 72.11 14.807 72.323 14.843 72.506 14.89 L 72.506 18.604 C 72.31 18.546 72.038 18.493 71.69 18.447 C 71.343 18.401 71.025 18.378 70.737 18.378 C 70.121 18.378 69.571 18.513 69.086 18.781 C 68.613 19.038 68.219 19.419 67.946 19.882 C 67.671 20.354 67.533 20.898 67.533 21.514 L 67.533 30.054 Z M 84.351 23.627 L 84.351 14.958 L 88.538 14.958 L 88.538 30.054 L 84.518 30.054 L 84.518 27.312 L 84.361 27.312 C 84.021 28.197 83.454 28.907 82.661 29.445 C 81.875 29.982 80.915 30.251 79.781 30.251 C 78.772 30.251 77.885 30.021 77.118 29.563 C 76.351 29.104 75.752 28.452 75.319 27.607 C 74.894 26.762 74.677 25.749 74.671 24.57 L 74.671 14.958 L 78.858 14.958 L 78.858 23.823 C 78.864 24.714 79.103 25.419 79.575 25.936 C 80.047 26.454 80.679 26.712 81.472 26.712 C 81.976 26.712 82.448 26.598 82.887 26.369 C 83.326 26.133 83.68 25.786 83.948 25.327 C 84.224 24.868 84.358 24.301 84.351 23.627 Z M 104.447 19.263 L 100.614 19.499 C 100.55 19.173 100.404 18.869 100.192 18.614 C 99.975 18.346 99.69 18.133 99.337 17.975 C 98.989 17.812 98.573 17.73 98.088 17.73 C 97.44 17.73 96.893 17.867 96.447 18.143 C 96.002 18.411 95.779 18.771 95.779 19.224 C 95.779 19.584 95.923 19.889 96.211 20.138 C 96.5 20.387 96.994 20.586 97.695 20.737 L 100.427 21.287 C 101.895 21.589 102.989 22.074 103.71 22.742 C 104.431 23.41 104.791 24.288 104.791 25.376 C 104.791 26.365 104.5 27.234 103.917 27.98 C 103.34 28.727 102.547 29.31 101.538 29.73 C 100.536 30.142 99.379 30.349 98.069 30.349 C 96.07 30.349 94.478 29.933 93.292 29.101 C 92.113 28.262 91.422 27.122 91.219 25.681 L 95.337 25.464 C 95.461 26.074 95.763 26.539 96.241 26.86 C 96.719 27.174 97.332 27.332 98.079 27.332 C 98.813 27.332 99.402 27.191 99.848 26.909 C 100.3 26.621 100.529 26.251 100.536 25.798 C 100.529 25.419 100.369 25.107 100.054 24.865 C 99.739 24.616 99.255 24.426 98.6 24.295 L 95.985 23.774 C 94.511 23.479 93.414 22.968 92.693 22.241 C 91.979 21.514 91.622 20.586 91.622 19.459 C 91.622 18.49 91.884 17.654 92.408 16.954 C 92.939 16.252 93.682 15.712 94.639 15.332 C 95.602 14.952 96.729 14.762 98.02 14.762 C 99.926 14.762 101.427 15.165 102.521 15.97 C 103.622 16.776 104.264 17.874 104.447 19.263 Z M 115.457 14.958 L 115.457 18.103 L 106.366 18.103 L 106.366 14.958 L 115.457 14.958 Z M 108.43 11.342 L 112.617 11.342 L 112.617 25.415 C 112.617 25.802 112.676 26.103 112.794 26.319 C 112.912 26.529 113.075 26.677 113.285 26.762 C 113.501 26.847 113.75 26.89 114.032 26.89 C 114.229 26.89 114.425 26.873 114.622 26.84 C 114.818 26.801 114.969 26.771 115.074 26.752 L 115.732 29.867 C 115.523 29.933 115.228 30.008 114.848 30.093 C 114.468 30.185 114.006 30.241 113.462 30.261 C 112.453 30.3 111.568 30.165 110.808 29.858 C 110.055 29.55 109.469 29.071 109.049 28.423 C 108.63 27.774 108.423 26.955 108.43 25.966 Z M 125.722 30.054 L 118.587 30.054 L 118.587 9.926 L 125.781 9.926 C 127.806 9.926 129.549 10.329 131.01 11.135 C 132.471 11.934 133.595 13.084 134.381 14.585 C 135.174 16.085 135.57 17.88 135.57 19.971 C 135.57 22.067 135.174 23.869 134.381 25.376 C 133.595 26.883 132.464 28.039 130.99 28.845 C 129.523 29.651 127.766 30.054 125.722 30.054 Z M 122.843 26.408 L 125.546 26.408 C 126.803 26.408 127.862 26.185 128.72 25.739 C 129.585 25.288 130.234 24.59 130.666 23.646 C 131.105 22.696 131.324 21.471 131.324 19.971 C 131.324 18.483 131.105 17.268 130.666 16.324 C 130.234 15.381 129.588 14.686 128.73 14.241 C 127.871 13.795 126.813 13.573 125.555 13.573 L 122.843 13.573 Z M 142.948 30.339 C 141.985 30.339 141.127 30.172 140.373 29.838 C 139.62 29.497 139.024 28.996 138.585 28.334 C 138.152 27.666 137.936 26.834 137.936 25.838 C 137.936 24.999 138.09 24.295 138.398 23.725 C 138.706 23.155 139.125 22.696 139.656 22.349 C 140.187 22.002 140.79 21.739 141.464 21.563 C 142.168 21.382 142.884 21.257 143.607 21.189 C 144.485 21.098 145.192 21.012 145.73 20.934 C 146.267 20.848 146.657 20.724 146.899 20.56 C 147.142 20.396 147.263 20.154 147.263 19.833 L 147.263 19.774 C 147.263 19.152 147.066 18.67 146.673 18.329 C 146.287 17.989 145.736 17.818 145.022 17.818 C 144.269 17.818 143.669 17.985 143.224 18.319 C 142.778 18.647 142.483 19.06 142.339 19.558 L 138.467 19.243 C 138.663 18.326 139.05 17.533 139.627 16.865 C 140.203 16.19 140.947 15.672 141.858 15.312 C 142.775 14.945 143.836 14.762 145.042 14.762 C 145.88 14.762 146.683 14.86 147.45 15.056 C 148.223 15.253 148.907 15.558 149.504 15.971 C 150.101 16.377 150.59 16.924 150.929 17.563 C 151.276 18.205 151.45 18.974 151.45 19.872 L 151.45 30.054 L 147.479 30.054 L 147.479 27.961 L 147.361 27.961 C 147.118 28.434 146.788 28.857 146.388 29.209 C 145.982 29.563 145.494 29.841 144.924 30.044 C 144.354 30.241 143.695 30.339 142.948 30.339 Z M 144.147 27.45 C 144.763 27.45 145.307 27.328 145.779 27.086 C 146.251 26.837 146.621 26.503 146.89 26.083 C 147.158 25.664 147.292 25.189 147.292 24.658 L 147.292 23.056 C 147.161 23.142 146.981 23.22 146.752 23.292 C 146.529 23.358 146.277 23.42 145.995 23.479 C 145.713 23.531 145.432 23.581 145.15 23.627 C 144.868 23.666 144.613 23.702 144.383 23.735 C 143.892 23.807 143.463 23.921 143.096 24.079 C 142.729 24.236 142.444 24.449 142.241 24.717 C 142.038 24.979 141.936 25.307 141.936 25.7 C 141.936 26.27 142.142 26.706 142.555 27.007 C 142.975 27.302 143.505 27.45 144.147 27.45 Z M 162.727 14.958 L 162.727 18.103 L 153.636 18.103 L 153.636 14.958 Z M 155.7 11.342 L 159.887 11.342 L 159.887 25.415 C 159.887 25.802 159.946 26.103 160.064 26.319 C 160.182 26.529 160.346 26.677 160.555 26.762 C 160.771 26.847 161.021 26.89 161.302 26.89 C 161.499 26.89 161.695 26.873 161.892 26.84 C 162.088 26.801 162.239 26.771 162.344 26.752 L 163.002 29.867 C 162.793 29.933 162.498 30.008 162.118 30.093 C 161.738 30.185 161.276 30.241 160.732 30.261 C 159.723 30.3 158.839 30.165 158.079 29.858 C 157.325 29.55 156.739 29.071 156.319 28.423 C 155.9 27.774 155.694 26.955 155.7 25.966 Z M 169.759 30.339 C 168.796 30.339 167.938 30.172 167.184 29.838 C 166.431 29.497 165.835 28.996 165.396 28.334 C 164.963 27.666 164.747 26.834 164.747 25.838 C 164.747 24.999 164.901 24.295 165.209 23.725 C 165.517 23.155 165.936 22.696 166.467 22.349 C 166.998 22.002 167.6 21.739 168.275 21.563 C 168.978 21.382 169.695 21.257 170.418 21.189 C 171.296 21.098 172.003 21.012 172.541 20.934 C 173.078 20.848 173.468 20.724 173.71 20.56 C 173.952 20.396 174.074 20.154 174.074 19.833 L 174.074 19.774 C 174.074 19.152 173.877 18.67 173.484 18.329 C 173.098 17.989 172.547 17.818 171.833 17.818 C 171.079 17.818 170.48 17.985 170.034 18.319 C 169.589 18.647 169.294 19.06 169.15 19.558 L 165.278 19.243 C 165.474 18.326 165.861 17.533 166.437 16.865 C 167.014 16.19 167.758 15.672 168.668 15.312 C 169.586 14.945 170.647 14.762 171.853 14.762 C 172.691 14.762 173.494 14.86 174.261 15.056 C 175.034 15.253 175.718 15.558 176.315 15.971 C 176.912 16.377 177.401 16.924 177.739 17.563 C 178.087 18.205 178.261 18.974 178.261 19.872 L 178.261 30.054 L 174.29 30.054 L 174.29 27.961 L 174.172 27.961 C 173.928 28.434 173.598 28.857 173.199 29.209 C 172.793 29.563 172.305 29.841 171.735 30.044 C 171.165 30.241 170.506 30.339 169.759 30.339 Z M 170.958 27.45 C 171.574 27.45 172.118 27.328 172.59 27.086 C 173.061 26.837 173.432 26.503 173.7 26.083 C 173.969 25.664 174.103 25.189 174.103 24.658 L 174.103 23.056 C 173.972 23.142 173.792 23.22 173.563 23.292 C 173.34 23.358 173.088 23.42 172.806 23.479 C 172.524 23.531 172.242 23.581 171.961 23.627 C 171.679 23.666 171.423 23.702 171.194 23.735 C 170.703 23.807 170.274 23.921 169.907 24.079 C 169.54 24.236 169.255 24.449 169.052 24.717 C 168.848 24.979 168.747 25.307 168.747 25.7 C 168.747 26.27 168.953 26.706 169.366 27.007 C 169.786 27.302 170.316 27.45 170.958 27.45 Z" fill="rgb(23, 22, 22)"></path></svg>